<?xml version="1.0" ?><svg style="enable-background:new 0 0 48 48;" version="1.1" viewBox="0 0 48 48" xml:space="preserve" xmlns="http://www.w3.org/2000/svg" xmlns:xlink="http://www.w3.org/1999/xlink"><g id="Padding__x26__Artboard"/><g id="Icons"><g><g><path d="M38.48689,31.71885c-0.03003-0.02997-0.06-0.07001-0.09003-0.09998     c-0.13-0.13-0.27997-0.25-0.42999-0.35999c-0.14001-0.11005-0.28998-0.21002-0.44-0.30005     c-0.01996-0.01996-0.04999-0.02997-0.07996-0.04999c-0.11005-0.07001-0.23004-0.13995-0.34003-0.20996     c-0.47998-0.26001-0.96997-0.49005-1.41998-0.73004c-0.5-0.26001-0.98999-0.51001-1.48999-0.76996     c-0.25-0.14001-0.49005-0.26001-0.71002-0.40002c-0.06-0.02997-0.10999-0.07001-0.16003-0.12     c-0.00995-0.01001-0.02997-0.03003-0.04999-0.03998l-0.01001-0.01001c-0.06-0.04999-0.12-0.10004-0.16998-0.15002     c-0.17999-0.17999-0.32001-0.39001-0.42999-0.66998c-0.07001-0.16998-0.12-0.28998-0.15997-0.41003     c-0.03003-0.09998-0.05005-0.17999-0.07001-0.25995c-0.01001-0.02002-0.01001-0.04004-0.02002-0.06     c0.01001-0.01001,0-0.02002,0-0.03003c-0.01001-0.07001-0.02002-0.14001-0.02997-0.22998c0-0.02002-0.01001-0.04004-0.01001-0.06     c-0.01001-0.04004-0.01001-0.09003-0.01001-0.14001c0-0.02002,0-0.03003-0.01001-0.04999v-0.08002     c0-0.03003,0-0.07001-0.01001-0.10999v-0.04004l0.33002-0.41998c0.15997-0.21997,0.28998-0.84998,0.35999-1.28998     c0.02002-0.12,0.03998-0.22003,0.04999-0.29999c0-0.03003,0.01001-0.05005,0.01001-0.07001c0-0.03003,0-0.05005,0.01001-0.07001     c0.01001-0.01001,0.01001-0.02002,0.01001-0.02002c0.14996-0.01001,0.27997-0.08002,0.38-0.19     c0.09998-0.10999,0.17999-0.23999,0.21997-0.37c0.12-0.39001,0.25-0.75,0.29004-1.16998     c0.03998-0.29999,0.09998-0.66998-0.14001-0.91003c-0.02002-0.01996-0.09003-0.04999-0.17999-0.06h-0.01001     c-0.01001-0.01001-0.02002-0.01001-0.03998-0.01001c-0.09003-0.00995-0.19-0.00995-0.21002,0.04004     c0.02002-0.04004,0.04999-0.78003,0.07001-1.33002c0.01001-0.16998,0.01001-0.31,0.01001-0.41998s0-0.17999,0-0.17999     l0.42999-0.31l0.01996-0.02002l-0.03998-0.33002l-0.01001-0.04999l-0.08002-0.64001c0,0-0.45996-2.21997-2.75995-2.75     c-2.30005-0.53998-3.67999,0.71002-3.67999,0.71002c-0.73004,0-1.21002,0.48999-1.43005,1.39001     c-0.09998,0.40997-0.10999,0.88-0.06995,1.25v0.14996c0.00995,0.05005,0.00995,0.10004,0.01996,0.15002     c0.02002,0.13,0.03003,0.22998,0.04999,0.31c0.01001,0.09998,0.02002,0.15002,0.02002,0.15002s0.02002,0.71997,0.03998,1.27997     c0.01001,0.22003,0.02002,0.41998,0.03003,0.53003c0,0.06,0.01001,0.09998,0.01001,0.10999     c-0.01001-0.02002-0.04004-0.03003-0.07001-0.04004c-0.03003-0.00995-0.08002-0.00995-0.13,0c-0.03998,0-0.08002,0-0.12,0.02002     c-0.04999,0.02002-0.09998,0.04004-0.10999,0.04999c-0.01001,0-0.01001,0-0.01001,0     c-0.23999,0.24005-0.17999,0.61005-0.14001,0.91003c0.01001,0.09998,0.03003,0.20996,0.04999,0.31     c0.04004,0.19,0.09003,0.38,0.15002,0.57001c0.02997,0.09998,0.06,0.19,0.08997,0.28998c0.08002,0.25,0.31,0.54999,0.61005,0.56     c0,0,0.04999,0.35004,0.13,0.73999v0.01001c0.01996,0.12,0.04999,0.23999,0.07996,0.35999     c0.04004,0.17999,0.09003,0.34003,0.13,0.47003c0.02002,0.02997,0.03003,0.06,0.04999,0.08997     c0.01001,0.03003,0.03003,0.06,0.04004,0.08002l0.33002,0.41003c-0.01001,0.08997-0.01001,0.16998-0.01001,0.23999     s-0.01001,0.13995-0.02002,0.20001c0.02002,0.02997,0.01001,0.06995-0.01001,0.12c-0.01001,0.06995-0.02002,0.13-0.02997,0.19     l-0.03003,0.14996c-0.03998,0.12-0.08002,0.26001-0.15997,0.44c0.01001,0.01001,0.01001,0.01001,0.01001,0.02002     c-0.03003,0.08002-0.06006,0.15997-0.10004,0.26001c-0.29999,0.75995-0.66998,0.94995-1.38,1.31     c-0.15997,0.07996-0.25,0.10999-0.41998,0.19c0.04999,0.01996,0.08997,0.04999,0.14001,0.07996     c0.44,0.23004,0.85999,0.51001,1.25,0.84003c0.98999,0.77997,1.76996,1.82001,2.07996,3.09998h10.76001     C39.09687,32.92887,38.8769,32.16886,38.48689,31.71885z" style="fill:none;"/><path d="M39.73689,33.46885H28.45686c-0.31-1.27997-1.08997-2.32001-2.07996-3.09998     c-0.39001-0.33002-0.81-0.60999-1.25-0.84003c0.98999-0.44995,1.78998-1.02997,1.76001-1.83997     c0-0.01001,0-0.01001-0.01001-0.02002c0.01001-0.07001,0-0.14001-0.02002-0.21002     c-0.02002-0.08997,0.14001-0.32996,0.21997-0.50995v-0.01001c0.01001-0.01001,0.02002-0.03003,0.02002-0.04999     c0.02002-0.05005,0.03003-0.09003,0.01001-0.12c0.01001-0.06006,0.02002-0.13,0.02002-0.20001     c0.01001-0.07001,0.01996-0.14001,0.01996-0.23004l-0.00995-0.00995l-0.33002-0.41003     c-0.01001-0.02002-0.03003-0.04999-0.04004-0.08002c-0.00995-0.00995-0.01996-0.02997-0.01996-0.04999     c-0.01001-0.01001-0.02002-0.01996-0.03003-0.03998c-0.03998-0.13-0.08997-0.29004-0.13-0.47003     c-0.02997-0.12-0.06-0.23999-0.07996-0.35999v-0.01001c-0.08002-0.38995-0.13-0.73999-0.13-0.73999     c-0.30005-0.01001-0.53003-0.31-0.61005-0.56c-0.02997-0.09998-0.06-0.19-0.08997-0.28998     c-0.06-0.19-0.10999-0.38-0.15002-0.57001c-0.01996-0.10004-0.03998-0.21002-0.04999-0.31     c-0.02997-0.29999-0.09998-0.66998,0.15002-0.91003c0.01001-0.00995,0.06-0.02997,0.10999-0.04999     c0.03998-0.02002,0.08002-0.02002,0.12-0.02002c0.04999-0.00995,0.09998-0.00995,0.13,0     c0.02997,0.01001,0.06,0.02002,0.07001,0.04004c0-0.01001-0.01001-0.04999-0.01001-0.10999     c-0.01001-0.11005-0.02002-0.31-0.03003-0.53003c-0.01996-0.56-0.03998-1.27997-0.03998-1.27997     s-0.01001-0.05005-0.02002-0.15002c-0.01996-0.08002-0.02997-0.17999-0.04999-0.31     c-0.01001-0.04999-0.01001-0.09998-0.01996-0.15002c0-0.04999-0.01001-0.10999-0.01001-0.15997l0.01001,0.01001     c0.12994,0.14996,0.21997,0.25,0.21997,0.25c-0.01001-0.62,0.17999-1.23999,0.59003-1.72003     c0.41998-0.47998,0.82996-0.70996,1.45996-0.63c0.73004,0.09003,1.42999-0.19,2.16003-0.20996     c0.70996-0.01001,1.41998,0.25,1.98999,0.66998c0.60999,0.46002,1.29477,1.2064,1.54477,1.93644c0.07996-0.06,0,0,0.06-0.08002     l0.00522-0.12645l0.04999,0.33002h-0.01001l-0.01996,0.02002l-0.42004,0.32001c0,0,0,0.06-0.00995,0.16998     c0,0.10999,0,0.25-0.01001,0.41998c-0.02002,0.54999-0.04999,1.28998-0.07001,1.33002     c0.02002-0.04999,0.12-0.04999,0.21002-0.04004c0.01996,0,0.02997,0,0.03998,0.01001h0.01001     c0.08997,0.01001,0.15997,0.04004,0.17999,0.06c0.23999,0.24005,0.17999,0.61005,0.14001,0.91003     c-0.04004,0.41998-0.17004,0.77997-0.29004,1.16998c-0.02997,0.13-0.10999,0.26001-0.21997,0.37     c-0.10004,0.10999-0.23004,0.17999-0.38,0.19h-0.01001c0,0,0,0.01001,0,0.02002     c-0.01001,0.01996-0.01001,0.03998-0.01001,0.07001c0,0.01996-0.01001,0.03998-0.01001,0.07001     c-0.01001,0.07996-0.02997,0.17999-0.04999,0.29999c-0.07001,0.44-0.20001,1.07001-0.35999,1.28998l-0.33002,0.41998v0.04004     c0.01001,0.03998,0.01001,0.07996,0.01001,0.10999s0.01001,0.06,0.01001,0.09003v0.03998c0,0.02002,0,0.03998,0.01001,0.06     v0.08002c0,0.01996,0.01001,0.03998,0.01001,0.06c0.00995,0.08997,0.01996,0.15997,0.02997,0.22998     c0,0.01001,0.01001,0.02002,0,0.03003c0.01001,0.00995,0.01001,0.00995,0.01001,0.00995     c0,0.02002,0.01001,0.04004,0.01001,0.05005c0.01996,0.07996,0.03998,0.15997,0.07001,0.25995     c0.03998,0.12006,0.08997,0.24005,0.15997,0.41003c0.10999,0.27997,0.25,0.48999,0.42999,0.66998     c0.04999,0.04999,0.10999,0.10004,0.16998,0.15002l0.01001,0.01001c0.02002,0.00995,0.04004,0.02997,0.04999,0.03998     c0.05005,0.04999,0.10004,0.09003,0.16003,0.12c0.21997,0.14001,0.46002,0.26001,0.71002,0.40002     c0.5,0.25995,0.98999,0.50995,1.48999,0.76996c0.45001,0.23999,0.94,0.47003,1.41998,0.73004     c0.09998,0.07001,0.21002,0.13,0.31,0.19995c0.01001,0,0.02002,0.01001,0.03003,0.01001     c0.02997,0.02002,0.06,0.03003,0.07996,0.04999c0.15002,0.09003,0.29999,0.19,0.44,0.30005     c0.15002,0.10999,0.29999,0.22998,0.42999,0.35999c0.03003,0.02997,0.06,0.07001,0.09003,0.09998     c0.33002,0.38,0.72998,0.80005,1.02002,1.15002C39.65687,33.15885,39.71687,33.37888,39.73689,33.46885z" style="fill:#B9D4F8;"/><path d="M26.70686,24.70884c0,0-1.25995-2.60999-0.29999-2.48999c0.95001,0.12,0.63-2.69995,0.63-2.69995     c-0.07001-2.16003,0.92999-2.28003,0.94-2.28003c0.08002-0.01001,0.12-0.03003,0.20001,0.01001     c1.08002,0.60999,2.21002,1.15997,3.39996,1.54999c0.73004,0.23999,1.52002,0.44,2.30005,0.40997     c0.01996,0.02002,0.03998,0.03003,0.06,0.05005l-0.42004,0.32001c0,0,0,0.06-0.00995,0.16998c0,0.10999,0,0.25-0.01001,0.41998     c-0.02002,0.54999-0.04999,1.28998-0.07001,1.33002c0.02002-0.04999,0.12-0.04999,0.21002-0.04004     c0.01996,0,0.02997,0,0.03998,0.01001h0.01001c0.08997,0.01001,0.15997,0.04004,0.17999,0.06     c0.23999,0.24005,0.17999,0.61005,0.14001,0.91003c-0.04004,0.41998-0.17004,0.77997-0.29004,1.16998     c-0.02997,0.13-0.10999,0.26001-0.21997,0.37c-0.10004,0.10999-0.23004,0.17999-0.38,0.19h-0.01001     c0,0-0.01001,0.06-0.02002,0.16003c-0.01001,0.07996-0.02997,0.17999-0.04999,0.29999     c-0.07001,0.44-0.20001,1.07001-0.35999,1.28998l-0.33002,0.41998v0.04004c0.01001,0.03998,0.01001,0.07996,0.01001,0.10999     v0.08002l0.01001,0.01001v0.03998c0,0.02002,0,0.03998,0.01001,0.06c0,0.04999,0,0.09998,0.01001,0.14001     c0.00995,0.08997,0.01996,0.15997,0.02997,0.22998c0,0.01001,0.01001,0.02002,0,0.03003     c0.01001,0.00995,0.01001,0.00995,0.01001,0.00995c0,0.02002,0.01001,0.04004,0.01001,0.05005     c0.01996,0.07996,0.03998,0.15997,0.07001,0.25995c0.19995,1.35004,1.35999,2.92004,3.57996,4.11005     c1.55005,0.83997,1.97003,1.52997,2.05005,1.95996h-9.68005c-0.31-1.27997-1.08997-2.32001-2.07996-3.09998     c0.34998-0.28998,0.66998-0.64001,0.87-1.06c0.47998-0.97998,0.32996-2.17999,0.06-3.20001l-0.5-0.19     c-0.01001-0.02002-0.03003-0.04999-0.04004-0.08002c-0.00995-0.00995-0.01996-0.02997-0.01996-0.04999     c-0.02002-0.04999-0.04004-0.10999-0.06-0.16998c-0.04004-0.09998-0.07001-0.22003-0.10004-0.34003     c-0.02997-0.12-0.06-0.23999-0.07996-0.35999v-0.01001C26.62691,24.78885,26.70686,24.70884,26.70686,24.70884z" style="fill:#659BDB;"/></g><g><path d="M26.20088,31.80234c-0.02533-0.03394-0.05908-0.06781-0.09283-0.10175     c-0.72589-0.70367-1.7641-1.1615-2.65033-1.62775c-0.05066-0.02545-0.09283-0.0509-0.14349-0.07629     c-0.43048-0.22894-0.87781-0.44934-1.30829-0.67828c-0.66681-0.3476-1.50244-0.64429-1.78943-1.3819     c-0.19836-0.49182-0.27606-1.39276-0.32031-2.11951h0.008h1.59528l-0.39667-0.47266c0,0,1.77252-0.35449,1.77252-0.48956     c0-0.14349-0.61615-0.93689-0.61615-0.93689c0.07245-0.3031,0.14777-0.59216,0.25208-0.88599     c0.10602-0.29858,0.21246-0.59735,0.30029-0.90192c0.11859-0.41125,0.09546-0.88385,0.06909-1.30646     c-0.03369-0.53992-0.12189-1.07654-0.24902-1.60205c-0.13849-0.57202-0.32489-1.13348-0.56396-1.67145     c-0.23596-0.53076-0.52429-1.04175-0.88269-1.49994c-0.33472-0.42792-0.7345-0.81195-1.20514-1.08759     c-0.46515-0.27252-0.99164-0.42566-1.53137-0.43445c-0.64789-0.0105-1.2829,0.1781-1.86139,0.45966     c-0.35236,0-0.7038,0.05725-1.03723,0.17151c-0.64868,0.22229-1.20551,0.65161-1.64581,1.17126     c-0.47723,0.56329-0.82697,1.22943-1.07147,1.92371c-0.25464,0.72321-0.3988,1.48743-0.4248,2.25372     c-0.0127,0.37341,0.00317,0.74811,0.05267,1.11853c0.02393,0.17938,0.05585,0.35779,0.09656,0.53412     c0.05359,0.23236,0.14221,0.44116,0.22198,0.66486c0.05408,0.15167,0.09467,0.30988,0.1369,0.46527     c0.05658,0.20813,0.11005,0.4173,0.15991,0.6272c0,0-0.61615,0.7934-0.61615,0.93689c0,0.13507,1.77252,0.48956,1.77252,0.48956     l-0.38824,0.47266h1.56989c-0.03656,0.73358-0.10034,1.63593-0.29535,2.11951c-0.28699,0.73761-1.15637,1.0343-1.82318,1.3819     c-0.48956,0.25433-0.97913,0.50024-1.46021,0.75458c-0.87787,0.46625-1.9245,0.92407-2.65039,1.62775     c-0.02527,0.03394-0.05908,0.06781-0.08441,0.10175c-0.59924,0.69519-0.80182,1.50061-0.83557,1.67017h11.28503h2.16925h5.31757     C27.00276,33.30296,26.80018,32.49754,26.20088,31.80234z" style="fill:#FFFFFF;"/><path d="M27.03307,33.47066H8.26311c0.03998-0.16998,0.23999-0.97003,0.83997-1.66998     c0.02002-0.03003,0.06-0.07001,0.08002-0.10004c0.72998-0.70001,1.77002-1.15997,2.65002-1.63     c0.47998-0.25,0.96997-0.5,1.45996-0.75c0.66998-0.34998,1.54004-0.64996,1.83002-1.38c0.19-0.48999,0.25-1.38995,0.28998-2.12     h-1.57001l0.39001-0.47998c0,0-1.77002-0.34998-1.77002-0.48999s0.61005-0.92999,0.61005-0.92999     c-0.04999-0.21002-0.10004-0.42004-0.16003-0.63c-0.03998-0.16003-0.07996-0.31-0.13-0.47003     c-0.07996-0.21997-0.16998-0.42999-0.22998-0.65997c-0.03998-0.17999-0.07001-0.34998-0.09003-0.53003     c-0.04999-0.37-0.06995-0.75-0.06-1.12c0.03003-0.76996,0.17004-1.52997,0.43005-2.26001     c0.1416-0.40704,0.33521-0.79803,0.5575-1.17273c-0.22034,0.3725-0.40344,0.81268-0.51752,1.34277l-0.0161,1.01489     c0,0,1.13725-3.05098,3.82745-4.0549c0.18444,0.04317,0.36845,0.09225,0.55412,0.12962     c0.65098,0.13103,0.9712,0.82834,1.57247,1.06719c0.29418,0.11686,0.60575,0.18579,0.90615,0.28435     c0.2457,0.08061,0.48813,0.17771,0.70589,0.31887c0.44,0.28998,0.78003,0.75,1.06,1.19     c0.72003,1.14996,1.10004,2.51996,1.14001,3.87c0,0,0.17999-1.71002-0.14001-3.52002c0.06,0.16998,0.10999,0.33002,0.15002,0.5     c0.13,0.52997,0.20996,1.06,0.25,1.59998c0.01996,0.42999,0.04999,0.90002-0.07001,1.31     c-0.09003,0.30005-0.20001,0.60004-0.29999,0.90002c-0.11005,0.28998-0.17999,0.58002-0.25,0.89001     c0,0,0.60999,0.78998,0.60999,0.92999s-1.77002,0.48999-1.77002,0.48999l0.40002,0.47998h-1.60999     c0.04999,0.72003,0.13,1.62,0.31995,2.12c0.29004,0.73004,1.13,1.03003,1.79004,1.38c0.42999,0.23004,0.88,0.45001,1.31,0.67999     c0.04999,0.02002,0.08997,0.05005,0.14001,0.07001c0.88995,0.47003,1.92999,0.92999,2.64996,1.63     c0.04004,0.03003,0.07001,0.07001,0.10004,0.10004C26.80309,32.50063,27.0031,33.30068,27.03307,33.47066z" style="fill:#B9D4F8;"/><path d="M27.03307,33.47066H10.70311c0.38995-0.75,1.39996-2.31,3.32001-3.13     c2.59997-1.09003,1.71997-4.23999,1.71997-4.23999s-0.13,0.02997-0.35999,0.09998c0.01996-0.13,0.01996-0.26001,0.02997-0.38     h-1.57001l0.39001-0.47998c0,0-1.77002-0.34998-1.77002-0.48999c1.32001-0.10999,1.77002-0.85004,1.77002-0.85004     c-1.26001-7.15997,2.61999-8.01996,2.61999-8.01996s1.66003,3.25,3.84003,4.48999c0,0,1.08997,0.54999,1.35999,2.84998v0.01001     c0.02002,0.54999,0.08211,0.77915,0.08211,0.77915l0.2379-0.03916c0.17999,0.24005,0.5,0.67999,0.5,0.78003     c0,0.14001-1.77002,0.48999-1.77002,0.48999l0.40002,0.47998h-1.60999c0.04999,0.72003,0.13,1.62,0.31995,2.12     c0.29004,0.73004,1.13,1.03003,1.79004,1.38c0.42999,0.23004,0.88,0.45001,1.31,0.67999     c0.04999,0.02002,0.08997,0.05005,0.14001,0.07001c0.88995,0.47003,1.92999,0.92999,2.64996,1.63     c0.04004,0.03003,0.07001,0.07001,0.10004,0.10004C26.80309,32.50063,27.0031,33.30068,27.03307,33.47066z" style="fill:#659BDB;"/></g><g><polyline points="     19.87687,33.46886 20.26687,33.46886 21.24687,33.46886 21.72687,33.46886 22.86687,33.46886 27.04687,33.46886    " style="fill:none;stroke:#1B4A9A;stroke-width:0.7;stroke-linecap:round;stroke-linejoin:round;stroke-miterlimit:10;"/><path d="     M37.44687,30.90886c0.03,0.02,0.06,0.03,0.08,0.05c0.45,0.25,0.88,0.53,1.23,0.87c0.04,0.04,0.07,0.07,0.1,0.1     c0.3,0.35,0.51,0.68,0.65,0.94c0.15,0.29,0.21,0.51,0.23,0.6h-0.52h-1.08h-9.68c-0.31-1.28-1.09-2.32-2.08-3.1     c-0.39-0.33-0.81-0.61-1.25-0.84c-0.05-0.03-0.09-0.06-0.14-0.08c0.17-0.08,0.26-0.11,0.42-0.19c0.71-0.36,1.08-0.55,1.38-1.31     c0.04-0.1,0.07-0.18,0.1-0.26c0.07-0.19,0.12-0.33,0.15-0.46c0.01-0.05,0.02-0.1,0.03-0.15c0-0.04,0.01-0.08,0.01-0.13v-0.01     c0.02-0.13,0.03-0.29,0.04-0.5l-0.34-0.42c-0.26-0.37-0.45-1.79-0.45-1.79c-0.31,0-0.55-0.32-0.63-0.57     c-0.13-0.4-0.25-0.77-0.3-1.19c-0.04-0.31-0.1-0.69,0.15-0.93c0.02-0.02,0.1-0.05,0.19-0.06c0.04-0.02,0.08-0.02,0.12-0.02     c0.07,0,0.12,0.01,0.14,0.05c0,0-0.01-0.02-0.01-0.05c-0.04-0.32-0.08-1.92-0.08-1.92s-0.25-1.14-0.02-2.05     c0.24-0.91,0.73-1.41,1.48-1.41c0,0,1.44-1.27,3.82-0.73c2.38,0.55,2.85,2.82,2.85,2.82l0.14,1.03l-0.47,0.34     c0,0-0.04,1.6-0.07,1.92c0,0.03-0.01,0.04-0.01,0.05c0.01-0.02,0.03-0.03,0.05-0.04h0.01c0.12-0.04,0.36,0.03,0.39,0.07     c0.25,0.24,0.18,0.62,0.15,0.93c-0.05,0.42-0.18,0.79-0.31,1.19c-0.08,0.25-0.32,0.57-0.62,0.57c0,0-0.2,1.42-0.45,1.79     l-0.34,0.42c0.04,0.73,0.05,0.81,0.32,1.51c0.12,0.29,0.27,0.49,0.44,0.68l0.01,0.01c0.02,0.01,0.04,0.03,0.05,0.04     c0.05,0.05,0.1,0.09,0.16,0.12c0.27,0.22,0.58,0.38,0.93,0.56c0.52,0.26,1.03,0.52,1.54,0.79c0.47,0.24,0.97,0.48,1.46,0.75     C37.42687,30.89886,37.43687,30.90886,37.44687,30.90886" style="fill:none;stroke:#1B4A9A;stroke-width:0.7;stroke-linecap:round;stroke-linejoin:round;stroke-miterlimit:10;"/><g><path d="      M15.43687,25.81886c-0.04,0.71-0.04,1.45-0.31,2.12c-0.29,0.73-1.16,1.03-1.83,1.38c-0.49,0.25-0.98,0.5-1.46,0.75      c-0.87,0.47-1.92,0.93-2.65,1.63c-0.02,0.03-0.06,0.07-0.08,0.1c-0.6,0.7-0.8,1.5-0.84,1.67h11.29h0.32h0.39h0.98h0.48h1.14      h4.18" style="fill:none;stroke:#1B4A9A;stroke-width:0.7;stroke-linecap:round;stroke-linejoin:round;stroke-miterlimit:10;"/><path d="      M23.57687,30.12886c0.02,0.01,0.04,0.02,0.06,0.03c0.56,0.3,1.18,0.59,1.73,0.95c0.27,0.18,0.53,0.37,0.75,0.59      c0.03,0.03,0.06,0.07,0.09,0.1c0.6,0.7,0.8,1.5,0.84,1.67" style="fill:none;stroke:#1B4A9A;stroke-width:0.7;stroke-linecap:round;stroke-linejoin:round;stroke-miterlimit:10;"/><path d="      M19.90687,25.81886c0.05,0.71,0.05,1.45,0.32,2.12c0.28,0.73,1.12,1.03,1.78,1.38c0.44,0.23,0.88,0.45,1.31,0.68      c0.05,0.02,0.1,0.05,0.15,0.07c0.02,0.01,0.04,0.02,0.07,0.04" style="fill:none;stroke:#1B4A9A;stroke-width:0.7;stroke-linecap:round;stroke-linejoin:round;stroke-miterlimit:10;"/><g><path d="       M15.43311,25.81648h-1.59l0.39-0.48c0,0-1.77-0.35-1.77-0.49001c0.00002-0.12852,0.15259-0.29683,0.22019-0.39585       c0.10674-0.15633,0.22842-0.30311,0.33347-0.46025c0.12044-0.18018-0.06429-0.59916-0.12525-0.79565       c-0.09694-0.31248-0.21267-0.61902-0.30078-0.93426c-0.2558-0.9153-0.22935-1.92632-0.05996-2.8547       c0.16478-0.90312,0.48728-1.79018,0.99193-2.56009c0.46001-0.7018,1.09035-1.31566,1.87863-1.6309       c0.37854-0.15138,0.78417-0.22829,1.19177-0.22829c0.69884-0.3405,1.48329-0.54158,2.26218-0.42635       c0.66135,0.09784,1.2618,0.42072,1.75468,0.86566c0.52469,0.47365,0.93163,1.06831,1.25365,1.69409       c0.33531,0.65161,0.58396,1.34791,0.75907,2.05893c0.15771,0.64039,0.26011,1.29994,0.27095,1.9602       c0.00467,0.2847,0.01169,0.60664-0.05694,0.88293c-0.15385,0.61939-0.47637,1.19299-0.54892,1.85253       c-0.01657,0.15546,0.23624,0.39063,0.32341,0.51575c0.07818,0.11221,0.26192,0.30954,0.26192,0.45626       c0,0.14-1.77,0.49-1.77,0.49l0.4,0.48h-1.6" style="fill:none;stroke:#1B4A9A;stroke-width:0.7;stroke-linecap:round;stroke-linejoin:round;stroke-miterlimit:10;"/></g></g></g></g></g></svg>